<svg viewBox="0 0 128 128"
    xmlns="http://www.w3.org/2000/svg">
    <path d="M62.271 10.88c.727-.42 1.62-.42 2.347 0L122.5 44.12c.727.42 1.175 1.196 1.175 2.035v66.48c0 .84-.448 1.615-1.175 2.035l-57.882 33.24c-.727.42-1.62.42-2.347 0L4.39 114.67c-.727-.42-1.175-1.196-1.175-2.035V46.155c0-.84.448-1.615 1.175-2.035L62.27 10.88z" fill="#A72145"/>
    <path d="M63.445 16.88L14.5 45.02v57.96l48.945 28.14 48.945-28.14V45.02L63.445 16.88zm0 8.4l40.11 23.06v46.12l-40.11 23.06-40.11-23.06V48.34l40.11-23.06z" fill="white"/>
    <circle cx="63.5" cy="64" r="8" fill="white"/>
    <path d="M63.5 40c-13.255 0-24 10.745-24 24s10.745 24 24 24 24-10.745 24-24-10.745-24-24-24zm0 8c8.837 0 16 7.163 16 16s-7.163 16-16 16-16-7.163-16-16 7.163-16 16-16z" fill="white"/>
</svg>